<svg width="139" height="69" viewBox="0 0 139 69" fill="none" xmlns="http://www.w3.org/2000/svg">
<path d="M65.2049 14.5263C63.9942 14.5049 62.7985 14.7947 61.7333 15.3678V41.586H61.3327V26.1297C61.1547 26.1297 60.9766 26.1739 60.7986 26.1739V25.9968C59.1963 26.1297 57.95 26.4397 57.6385 27.3254C57.4592 27.535 57.3641 27.8032 57.3714 28.0783V42.4718H56.5703V42.9146H55.7691V45.439H55.4576V46.1919H55.324V48.5834H54.5674V43.0475L54.5229 42.9146V42.4718H54.3894L54.3449 41.7632L54.3003 41.2317C54.3449 41.1874 54.3894 41.1874 54.3894 41.0988C54.3894 41.0636 54.3753 41.0298 54.3503 41.0049C54.3252 40.98 54.2913 40.966 54.2558 40.966C54.2204 40.966 54.1865 40.98 54.1614 41.0049C54.1364 41.0298 54.1223 41.0636 54.1223 41.0988C54.1223 41.1431 54.1668 41.1874 54.2113 41.2317L54.1668 41.7632L54.1223 42.4718H53.9888V42.6489H53.4992V42.4275L53.0096 42.1617H52.8316L52.2975 42.4275V42.6489H51.8079V42.4718H51.6743L51.6298 41.7632L51.5853 41.2317C51.6298 41.1874 51.6743 41.1874 51.6743 41.0988C51.6743 41.0636 51.6603 41.0298 51.6352 41.0049C51.6102 40.98 51.5762 40.966 51.5408 40.966C51.5054 40.966 51.4714 40.98 51.4464 41.0049C51.4214 41.0298 51.4073 41.0636 51.4073 41.0988C51.4073 41.1431 51.4518 41.1874 51.4963 41.2317L51.4518 41.7632L51.4073 42.4718H51.4518V42.9146L51.4073 43.0475V45.3062H50.6952V39.5488H50.7397V38.7516H50.5616L50.4726 37.8216L50.4281 37.1572C50.4726 37.113 50.5616 37.0687 50.5616 36.9801C50.5616 36.9331 50.5429 36.8881 50.5095 36.8548C50.4761 36.8216 50.4308 36.803 50.3836 36.803C50.3364 36.803 50.2911 36.8216 50.2577 36.8548C50.2243 36.8881 50.2056 36.9331 50.2056 36.9801C50.2056 37.0687 50.2501 37.113 50.3391 37.1572L50.2946 37.8216L50.2056 38.7516H50.0275V39.3273H49.3154V38.7959H48.8703V34.4114H48.8258L48.7813 34.1014V33.88L48.8258 33.8357C48.8258 33.8239 48.8211 33.8127 48.8128 33.8044C48.8044 33.7961 48.7931 33.7914 48.7813 33.7914L48.7368 33.8357C48.7368 33.88 48.7368 33.88 48.7813 33.88V34.1014L48.7368 34.4114H48.6923V34.5886H48.5588V34.4114H48.3362V34.2786H48.0247C48.027 34.2171 48.0421 34.1567 48.0692 34.1014C48.0745 33.9802 48.0487 33.8597 47.9942 33.7512C47.9397 33.6427 47.8582 33.5498 47.7576 33.4814V33.2599H47.6241L47.4906 30.4698L47.4015 29.0083L47.5796 29.0969L47.446 28.9641C47.5326 28.9429 47.6081 28.8903 47.6575 28.8165C47.707 28.7427 47.7268 28.6531 47.7131 28.5655C47.7192 28.4905 47.7009 28.4155 47.6608 28.3516C47.6207 28.2878 47.561 28.2386 47.4906 28.2112C47.5519 28.2463 47.6015 28.2986 47.6332 28.3616C47.6648 28.4247 47.6772 28.4955 47.6686 28.5655C47.6608 28.6614 47.6218 28.7522 47.5576 28.8241C47.4934 28.896 47.4073 28.9451 47.3125 28.9641C47.2134 28.9551 47.1214 28.9089 47.0552 28.8349C46.9891 28.7608 46.9538 28.6645 46.9564 28.5655C46.9564 28.4967 46.9725 28.4289 47.0034 28.3674C47.0343 28.3059 47.0792 28.2524 47.1345 28.2112C47.0677 28.2435 47.0115 28.2939 46.9722 28.3566C46.9328 28.4192 46.9119 28.4916 46.9119 28.5655C46.9134 28.6504 46.9393 28.7331 46.9866 28.8038C47.034 28.8745 47.1008 28.9301 47.179 28.9641L47.0455 29.0969L47.2235 29.0083L47.1345 30.4698L47.001 33.2599H46.8674V33.4814C46.7707 33.5536 46.6922 33.6472 46.6381 33.7548C46.584 33.8624 46.5559 33.9811 46.5559 34.1014C46.5559 34.19 46.5559 34.2786 46.6004 34.2786H46.2888V34.4114H46.0663V34.5886H45.9328V34.4114H45.8882L45.8437 34.1014V33.88L45.8882 33.8357C45.8882 33.8239 45.8836 33.8127 45.8752 33.8044C45.8669 33.7961 45.8555 33.7914 45.8437 33.7914C45.81 33.7961 45.7787 33.8116 45.7547 33.8357C45.7547 33.88 45.7547 33.88 45.7992 33.88V34.1014L45.7547 34.4114H45.7102V38.8402H45.2206V39.3716H44.5085V38.7959H44.3305L44.2414 37.8659L44.1969 37.2015C44.2414 37.1573 44.3305 37.113 44.3305 37.0244C44.3305 36.9774 44.3117 36.9323 44.2783 36.8991C44.2449 36.8659 44.1996 36.8472 44.1524 36.8472C44.1052 36.8472 44.0599 36.8659 44.0265 36.8991C43.9931 36.9323 43.9744 36.9774 43.9744 37.0244C43.9744 37.113 44.0189 37.1573 44.1079 37.2015L44.0634 37.8659L43.9744 38.7959H43.8854V39.5931H43.9299V45.3504H42.4166V43.0918L42.3721 42.9589V42.516H42.2386L42.194 41.8074L42.1495 41.276C42.194 41.2317 42.2386 41.2317 42.2386 41.1431C42.2386 41.1079 42.2245 41.0741 42.1994 41.0492C42.1744 41.0243 42.1404 41.0103 42.105 41.0103C42.0696 41.0103 42.0356 41.0243 42.0106 41.0492C41.9856 41.0741 41.9715 41.1079 41.9715 41.1431C41.9715 41.1874 42.016 41.2317 42.0605 41.276L42.016 41.8074L41.9715 42.516H41.838V42.6932H41.3484V42.4275L40.8588 42.1617H40.7698L40.2802 42.4275V42.6489H39.7906V42.4718H39.6571L39.6126 41.7632L39.568 41.2317C39.6126 41.1874 39.6571 41.1874 39.6571 41.0988C39.6571 41.0636 39.643 41.0298 39.618 41.0049C39.5929 40.98 39.5589 40.966 39.5235 40.966C39.4881 40.966 39.4542 40.98 39.4291 41.0049C39.4041 41.0298 39.39 41.0636 39.39 41.0988C39.39 41.1431 39.4345 41.1874 39.479 41.2317L39.4345 41.7632L39.39 42.4718H39.2565V42.9146L39.212 43.0475V50.7092H38.9449L38.7224 51.1964H38.8114V52.1264H38.3218V52.3036L37.7877 52.9236H37.4761V53.9865H37.2981V54.3408H37.0756V55.758H36.3189V56.068H36.4524V57.5295C22.5213 60.7182 10.1924 64.5712 0 69C32.7137 58.5924 77.3557 52.1707 126.582 52.1707C130.81 52.1707 134.638 52.215 138.822 52.3036L138.777 39.3273V39.0616L138.421 33.9685V32.7728H139V32.2413H138.688V31.5327H138.866V30.957H138.332L138.199 27.0597V26.6168H138.243V26.0854H138.11V25.6425H138.243V25.111H138.11L137.976 21.6566H138.332V21.2137H138.51V20.1065H138.377V19.8851H138.243V18.9108H138.377V18.2908H138.021V17.2721H138.154V16.785H138.021V15.6778H138.154V15.1906H138.021V13.9949H138.421V13.1534H138.599V12.2234H138.51V10.7619H137.932V9.38896H138.065V9.21181H137.798V6.95315H137.932V6.77599H137.665V4.60591H137.843V4.51733H137.62V3.01155H137.709V2.8344H137.576V1.4172H137.665V1.24005H137.531V0.177151H137.62V0H137.442V0.177151H137.531V1.19576H137.353V1.4172H137.442V2.8344H137.309V3.01155H137.398V4.42875H137.175V4.60591H137.353V6.73171H137.086V6.90886H137.22V9.16752H136.908V9.34467H137.042V10.7176H136.463V12.1791H136.374V13.1091H136.552V13.9506H136.953V15.1463H136.819V15.6335H136.953V16.7407H136.819V17.2279H136.953V18.2465H136.641V18.8665H136.775V19.8408H136.641V20.0623H136.463V21.1694H136.641V21.6123H136.997L136.864 25.0668H136.73V25.5982H136.864V26.0411H136.73V26.5725H136.775V27.0154L136.641 30.9127H136.107V31.4884H136.285V32.2413H136.018V32.7728H136.597V33.9685L136.419 39.0616V39.3273L136.329 42.206C136.274 42.1791 136.213 42.164 136.151 42.1617L136.24 42.9146H135.973L136.062 42.1617C135.969 42.2194 135.861 42.2499 135.751 42.2499C135.641 42.2499 135.533 42.2194 135.439 42.1617L135.528 42.9146H135.128L135.217 42.1617C135.123 42.2194 135.015 42.2499 134.905 42.2499C134.795 42.2499 134.687 42.2194 134.594 42.1617L134.683 42.9146H134.416L134.505 42.1617C134.411 42.2194 134.303 42.2499 134.193 42.2499C134.083 42.2499 133.975 42.2194 133.882 42.1617L133.971 42.9146H133.703L133.792 42.1617C133.699 42.2194 133.591 42.2499 133.481 42.2499C133.371 42.2499 133.263 42.2194 133.169 42.1617L133.258 42.9146H132.947V41.276H132.991V40.8774H132.457L132.057 39.1059L131.656 40.8774H131.3V41.3646H131.389V43.0475H131.211L131.3 42.2946C131.206 42.3523 131.099 42.3828 130.988 42.3828C130.878 42.3828 130.771 42.3523 130.677 42.2946L130.766 43.0475H130.499L130.588 42.2946C130.494 42.3523 130.386 42.3828 130.276 42.3828C130.166 42.3828 130.058 42.3523 129.965 42.2946L130.054 43.0475H129.742L129.831 42.2946C129.738 42.3523 129.63 42.3828 129.52 42.3828C129.41 42.3828 129.302 42.3523 129.208 42.2946L129.297 43.0475H128.986L129.075 42.2946C128.981 42.3523 128.873 42.3828 128.763 42.3828C128.653 42.3828 128.545 42.3523 128.451 42.2946L128.541 43.0475H128.273L128.362 42.2946C128.269 42.3523 128.161 42.3828 128.051 42.3828C127.941 42.3828 127.833 42.3523 127.739 42.2946L127.828 43.0475H127.561L127.65 42.2946C127.557 42.3523 127.449 42.3828 127.339 42.3828C127.229 42.3828 127.121 42.3523 127.027 42.2946L127.116 43.0475H126.849L126.938 42.2946C126.894 42.2946 126.805 42.3389 126.76 42.3389V33.6585L126.671 32.4185V32.2413H126.849V31.887H126.983V30.957H126.849L126.671 30.3813L126.449 28.4769L126.226 30.3813L126.048 30.957H125.914V31.1341L125.514 30.957H124.891V29.4069H124.624V26.8825H124.535L124.357 26.0854H124.223V24.8453H124.312V24.2696H124.446V23.4724H124.312V21.6566H124.401L124.223 20.9923L123.912 20.1065H123.11L121.909 12.3119L122.487 12.7991L122.22 12.0905L122.843 11.6476L122.042 11.6919L121.864 10.939L121.686 11.6919L120.885 11.6476L121.508 12.0905L121.241 12.7991L121.82 12.3119L120.618 20.1065H119.861L119.55 20.9923L119.372 21.6566H119.461V23.4724H119.327V24.2696H119.461V24.8453H119.55V26.2182H119.416L119.238 27.0154H119.105V29.5398H118.927V31.0899H118.66L118.259 31.267V31.0899H118.126L117.947 30.5141L117.725 28.6098L117.502 30.5141L117.324 31.0899H117.191V32.0199H117.324V32.3742H117.502V32.5513L117.413 33.7914V43.1361H117.235L117.324 42.3832C117.231 42.4408 117.123 42.4714 117.013 42.4714C116.903 42.4714 116.795 42.4408 116.701 42.3832L116.79 43.1361H116.523L116.612 42.3832C116.519 42.4408 116.411 42.4714 116.301 42.4714C116.191 42.4714 116.083 42.4408 115.989 42.3832L116.078 43.1361H115.811L115.9 42.3832C115.806 42.4408 115.699 42.4714 115.589 42.4714C115.478 42.4714 115.371 42.4408 115.277 42.3832L115.366 43.1361H115.099L115.188 42.3832C115.094 42.4408 114.986 42.4714 114.876 42.4714C114.766 42.4714 114.658 42.4408 114.565 42.3832L114.654 43.1361H114.387L114.476 42.3832C114.382 42.4408 114.274 42.4714 114.164 42.4714C114.054 42.4714 113.946 42.4408 113.853 42.3832L113.942 43.1361H113.497L113.586 42.3832C113.492 42.4408 113.384 42.4714 113.274 42.4714C113.164 42.4714 113.056 42.4408 112.963 42.3832L113.052 43.1361H112.74L112.829 42.3832C112.735 42.4408 112.628 42.4714 112.517 42.4714C112.407 42.4714 112.299 42.4408 112.206 42.3832L112.295 43.1361H112.117V41.4531H112.161V40.966H111.538L111.138 39.1945L110.737 40.966H110.337V41.4531H110.426V43.1361H110.248L110.337 42.3832C110.243 42.4408 110.135 42.4714 110.025 42.4714C109.915 42.4714 109.807 42.4408 109.713 42.3832L109.802 43.1361H109.535L109.624 42.3832C109.531 42.4408 109.423 42.4714 109.313 42.4714C109.203 42.4714 109.095 42.4408 109.001 42.3832L109.09 43.1361H108.823L108.912 42.3832C108.819 42.4408 108.711 42.4714 108.601 42.4714C108.491 42.4714 108.383 42.4408 108.289 42.3832L108.378 43.1361H107.978L108.067 42.3832C107.973 42.4408 107.865 42.4714 107.755 42.4714C107.645 42.4714 107.537 42.4408 107.443 42.3832L107.533 43.1361H107.265L107.354 42.3832C107.261 42.4408 107.153 42.4714 107.043 42.4714C106.933 42.4714 106.825 42.4408 106.731 42.3832L106.82 43.1361H106.553L106.642 42.3832C106.549 42.4408 106.441 42.4714 106.331 42.4714C106.221 42.4714 106.113 42.4408 106.019 42.3832L106.108 43.1361H105.841L105.93 42.3832C105.837 42.4408 105.729 42.4714 105.619 42.4714C105.509 42.4714 105.401 42.4408 105.307 42.3832L105.396 43.1361H105.129L105.218 42.3832C105.124 42.4408 105.017 42.4714 104.907 42.4714C104.796 42.4714 104.689 42.4408 104.595 42.3832L104.684 43.1361H104.417L104.506 42.3832C104.412 42.4408 104.304 42.4714 104.194 42.4714C104.084 42.4714 103.976 42.4408 103.883 42.3832L103.972 43.1361H103.705L103.794 42.3832C103.7 42.4408 103.592 42.4714 103.482 42.4714C103.372 42.4714 103.264 42.4408 103.171 42.3832L103.26 43.1361H102.859V42.3389H102.637V41.7189H102.681V41.276H102.548V41.0988L102.147 39.6374H102.236V39.4602H102.147V38.3087H102.236V38.1316H101.88L101.435 36.8915L100.99 38.1316H100.634V38.3087H100.723V39.4602H100.634V39.6374H100.723L100.322 41.0988V41.276H100.189V41.586H100.233V42.206H100.011V45.5719H99.3874V45.749H99.0759V45.1733H98.6308V46.059H98.0522V47.6977H97.2955V44.9519H95.8268V45.5276H95.4262V45.129H93.7349V42.4718H93.0227L92.0881 23.4724H91.821V23.3838H91.5095V22.9409H90.5748C90.3967 21.7895 90.2187 21.0809 89.9962 21.0809C89.9071 21.0809 89.8626 21.1694 89.8181 21.258H85.5008C85.4563 21.1252 85.3673 21.0809 85.3228 21.0809C84.7887 21.0809 84.3881 25.1553 84.3881 30.1598C84.3881 31.6213 84.4326 32.9942 84.4771 34.2343L83.5424 34.19V30.8684H83.7205V24.6682H83.5424V20.1951H83.7205V14.5263H82.6077V13.9063H80.6494V14.5263H80.2933V33.88L79.6257 34.2343V32.7285H79.8037V25.9968H79.4031V20.2837H79.5367V13.1091H78.4685V12.4005H76.243V13.1091H75.7534V20.2394H75.4419V26.6611H75.6644V32.4185L75.2193 32.6842V27.0154C74.0077 27.0397 72.8489 27.5136 71.9702 28.344C71.5251 32.2413 71.3916 40.7888 71.3916 40.7888H71.0355V34.1457C70.991 34.0128 70.8575 33.9243 70.6795 33.7471C70.5905 33.3042 70.1899 32.9056 69.4332 32.5513V16.3421H69.0772V15.8107H68.8991V15.3235C68.7142 15.2306 68.5204 15.1564 68.3205 15.1021C67.3183 14.7504 66.2672 14.5562 65.2049 14.5263Z" fill="#FF2169"/>
</svg>
